<?xml version="1.0" encoding="utf-8"?>
<!-- Generator: Adobe Illustrator 23.1.0, SVG Export Plug-In . SVG Version: 6.00 Build 0)  -->
<svg version="1.1" id="Слой_1" xmlns="http://www.w3.org/2000/svg" xmlns:xlink="http://www.w3.org/1999/xlink" x="0px" y="0px"
	 viewBox="0 0 35 17" style="enable-background:new 0 0 35 17;" xml:space="preserve">
<style type="text/css">
	.st0{fill:#494949;}
</style>
<g>
	<g>
		<path class="st0" d="M0.2,8C0.2,8,0.2,8,0.2,8c-0.3,0.3-0.3,0.8,0,1.1l8,7.7C8.3,16.9,8.5,17,8.7,17c0.4,0,0.8-0.3,0.8-0.8
			c0-0.2-0.1-0.4-0.2-0.5L2.7,9.3h31.5c0.4,0,0.8-0.3,0.8-0.8c0-0.4-0.4-0.8-0.8-0.8H2.7l6.6-6.4C9.5,1.2,9.5,1,9.5,0.8c0,0,0,0,0,0
			C9.5,0.3,9.2,0,8.7,0C8.5,0,8.3,0.1,8.2,0.2L0.2,8L0.2,8z"/>
	</g>
</g>
</svg>
